<?xml version="1.0" standalone="no"?>
<!DOCTYPE svg PUBLIC "-//W3C//DTD SVG 20010904//EN"
 "http://www.w3.org/TR/2001/REC-SVG-20010904/DTD/svg10.dtd">
<svg version="1.0" xmlns="http://www.w3.org/2000/svg"
 width="480.000000pt" height="480.000000pt" viewBox="0 0 480.000000 480.000000"
 preserveAspectRatio="xMidYMid meet">
<metadata>
Created by potrace 1.11, written by Peter Selinger 2001-2013
</metadata>
<g transform="translate(0.000000,480.000000) scale(0.100000,-0.100000)"
fill="#000000" stroke="none">
<path d="M2218 4795 c-1 -1 -32 -6 -68 -9 -291 -30 -585 -117 -839 -248 -440
-226 -791 -571 -1028 -1008 -73 -134 -170 -376 -198 -494 -26 -108 -55 -250
-60 -291 -3 -27 -10 -79 -14 -115 -9 -68 -6 -446 4 -515 3 -22 10 -67 16 -100
6 -33 12 -69 14 -80 16 -98 73 -289 127 -425 172 -433 482 -820 873 -1092 218
-151 547 -298 795 -354 19 -4 37 -8 40 -9 3 -1 25 -5 50 -9 25 -5 54 -10 65
-12 24 -5 75 -12 170 -23 70 -8 448 -7 495 2 14 2 52 8 85 12 33 4 103 16 155
27 118 25 112 24 130 31 8 3 49 16 90 28 90 26 194 67 310 121 47 22 87 39 89
38 2 -1 7 2 10 7 3 4 17 14 30 21 13 8 40 23 60 34 41 23 249 164 266 182 7 6
32 27 55 46 270 219 529 567 669 900 60 142 126 356 145 470 10 62 16 95 21
115 30 140 27 558 -6 740 -6 33 -12 71 -14 85 -12 78 -74 283 -120 400 -94
236 -216 449 -366 635 -62 77 -244 266 -304 315 -255 211 -502 352 -781 448
-100 35 -303 87 -374 97 -25 3 -74 11 -110 17 -58 10 -473 21 -482 13z"/>
</g>
</svg>
