<svg width="34" height="38" viewBox="0 0 34 38" fill="none" xmlns="http://www.w3.org/2000/svg">
<path d="M1 9H33M31 9L29.266 33.284C29.1942 34.2932 28.7426 35.2376 28.0022 35.9271C27.2619 36.6167 26.2877 37 25.276 37H8.724C7.71228 37 6.73813 36.6167 5.99777 35.9271C5.25741 35.2376 4.80583 34.2932 4.734 33.284L3 9H31ZM13 17V29V17ZM21 17V29V17ZM23 9V3C23 2.46957 22.7893 1.96086 22.4142 1.58579C22.0391 1.21071 21.5304 1 21 1H13C12.4696 1 11.9609 1.21071 11.5858 1.58579C11.2107 1.96086 11 2.46957 11 3V9H23Z" stroke="white" stroke-width="2" stroke-linecap="round" stroke-linejoin="round"/>
</svg>
