<svg width="38" height="38" viewBox="0 0 38 38" fill="none" xmlns="http://www.w3.org/2000/svg">
<path d="M31 13V19V13ZM31 19V25V19ZM31 19H37H31ZM31 19H25H31ZM21 9C21 11.1217 20.1571 13.1566 18.6569 14.6569C17.1566 16.1571 15.1217 17 13 17C10.8783 17 8.84344 16.1571 7.34315 14.6569C5.84285 13.1566 5 11.1217 5 9C5 6.87827 5.84285 4.84344 7.34315 3.34315C8.84344 1.84285 10.8783 1 13 1C15.1217 1 17.1566 1.84285 18.6569 3.34315C20.1571 4.84344 21 6.87827 21 9V9ZM1 35C1 31.8174 2.26428 28.7652 4.51472 26.5147C6.76516 24.2643 9.8174 23 13 23C16.1826 23 19.2348 24.2643 21.4853 26.5147C23.7357 28.7652 25 31.8174 25 35V37H1V35Z" stroke="white" stroke-width="2" stroke-linecap="round" stroke-linejoin="round"/>
</svg>
