<svg width="38" height="38" viewBox="0 0 38 38" fill="none" xmlns="http://www.w3.org/2000/svg">
<path d="M24.504 17.3364L18.11 13.0724C17.8085 12.8712 17.458 12.7558 17.096 12.7384C16.734 12.721 16.3741 12.8023 16.0547 12.9736C15.7353 13.1449 15.4685 13.3997 15.2827 13.7109C15.0969 14.0221 14.9992 14.378 15 14.7404V23.2664C15 23.6285 15.0982 23.9838 15.2843 24.2944C15.4703 24.605 15.7372 24.8593 16.0565 25.0301C16.3757 25.201 16.7354 25.2819 17.097 25.2643C17.4587 25.2468 17.8088 25.1313 18.11 24.9304L24.504 20.6664C24.7779 20.4837 25.0025 20.2363 25.1578 19.946C25.3132 19.6557 25.3945 19.3316 25.3945 19.0024C25.3945 18.6732 25.3132 18.349 25.1578 18.0588C25.0025 17.7685 24.7779 17.521 24.504 17.3384V17.3364Z" stroke="white" stroke-width="2" stroke-linecap="round" stroke-linejoin="round"/>
<path d="M37 19C37 21.3638 36.5344 23.7044 35.6298 25.8883C34.7252 28.0722 33.3994 30.0565 31.7279 31.7279C30.0565 33.3994 28.0722 34.7252 25.8883 35.6298C23.7044 36.5344 21.3638 37 19 37C16.6362 37 14.2956 36.5344 12.1117 35.6298C9.92784 34.7252 7.94353 33.3994 6.27208 31.7279C4.60062 30.0565 3.27475 28.0722 2.37017 25.8883C1.46558 23.7044 1 21.3638 1 19C1 14.2261 2.89642 9.64773 6.27208 6.27208C9.64773 2.89642 14.2261 1 19 1C23.7739 1 28.3523 2.89642 31.7279 6.27208C35.1036 9.64773 37 14.2261 37 19Z" stroke="white" stroke-width="2" stroke-linecap="round" stroke-linejoin="round"/>
</svg>
