<svg width="34" height="38" viewBox="0 0 34 38" fill="none" xmlns="http://www.w3.org/2000/svg">
<path d="M23 29H11M23 29H33L30.19 26.19C29.8126 25.8126 29.5133 25.3645 29.3091 24.8714C29.105 24.3782 28.9999 23.8497 29 23.316V17C29.0003 14.5179 28.2312 12.0967 26.7985 10.0698C25.3658 8.04287 23.34 6.50993 21 5.682V5C21 3.93913 20.5786 2.92172 19.8284 2.17157C19.0783 1.42143 18.0609 1 17 1C15.9391 1 14.9217 1.42143 14.1716 2.17157C13.4214 2.92172 13 3.93913 13 5V5.682C8.34 7.33 5 11.776 5 17V23.318C5 24.394 4.572 25.428 3.81 26.19L1 29H11H23ZM23 29V31C23 32.5913 22.3679 34.1174 21.2426 35.2426C20.1174 36.3679 18.5913 37 17 37C15.4087 37 13.8826 36.3679 12.7574 35.2426C11.6321 34.1174 11 32.5913 11 31V29H23Z" stroke="white" stroke-width="2" stroke-linecap="round" stroke-linejoin="round"/>
</svg>
