<svg width="18" height="20" viewBox="0 0 18 20" fill="none" xmlns="http://www.w3.org/2000/svg">
<path d="M14.657 16.657C13.1567 18.1573 11.1218 19.0002 8.99999 19.0002C6.87821 19.0002 4.84332 18.1573 3.34299 16.657C1.84266 15.1567 0.999786 13.1218 0.999786 11C0.999786 8.87821 1.84266 6.84333 3.34299 5.343C3.34299 5.343 3.99999 7 5.99999 8C5.99999 6 6.49999 3 8.98599 1C11 3 13.09 3.777 14.656 5.343C15.4001 6.08499 15.9903 6.96674 16.3926 7.93756C16.7948 8.90839 17.0013 9.94914 17 11C17.0014 12.0508 16.7951 13.0915 16.393 14.0623C15.9909 15.0331 15.401 15.9149 14.657 16.657Z" stroke="#EB5757" stroke-width="2" stroke-linecap="round" stroke-linejoin="round"/>
<path d="M6.879 14.121C7.22739 14.4695 7.65625 14.7268 8.12769 14.8702C8.59913 15.0135 9.09863 15.0386 9.58205 14.9431C10.0655 14.8476 10.5179 14.6345 10.8994 14.3226C11.2809 14.0107 11.5797 13.6096 11.7694 13.1548C11.9591 12.7001 12.0338 12.2056 11.987 11.715C11.9402 11.2245 11.7733 10.753 11.5011 10.3423C11.2288 9.93162 10.8595 9.5943 10.4259 9.36019C9.99234 9.12607 9.50776 9.00236 9.015 9L8 12H6C6 12.768 6.293 13.536 6.879 14.121Z" stroke="#EB5757" stroke-width="2" stroke-linecap="round" stroke-linejoin="round"/>
</svg>
