<svg width="52" height="18" viewBox="0 0 52 18" fill="none" xmlns="http://www.w3.org/2000/svg">
<g clip-path="url(#clip0)">
<path d="M2.89364 3.2804H-3.05176e-05V14.6854H2.89364C6.04151 14.6854 8.59573 12.1326 8.59573 8.98103C8.59573 5.83321 6.04141 3.2804 2.89364 3.2804Z" fill="#FEDF04"/>
<path d="M2.79852 0.222656H0.0132141V3.51203H2.79852C5.82851 3.51203 8.2868 5.96882 8.2868 9.00022C8.2868 12.0325 5.82851 14.488 2.79852 14.488H0.0132141V17.7774H2.79852C7.64626 17.7774 11.6841 14.2262 11.6841 9.00022C11.6841 3.70642 7.64626 0.222656 2.79852 0.222656ZM9.90637 17.7774H13.1996V14.4879H9.90637V17.7774ZM42.8276 9.00022L49.2797 2.54924V0.222656H46.8437L39.2996 7.76566V0.222656H9.92579V3.51203H16.1113V17.7774H19.5618V3.51203H25.7777C24.6429 4.96185 23.9605 6.82705 23.9605 9.00022C23.9605 14.2262 27.9975 17.7774 32.8447 17.7774H39.2996V10.2348L46.8437 17.7774H51.6063L42.8276 9.00022ZM35.849 14.488H32.8447C30.3693 14.488 28.2763 12.8452 27.5939 10.5912H32.466V7.40495H27.5939C28.2764 5.15333 30.3707 3.51203 32.8447 3.51203H35.849V14.488Z" fill="#333333"/>
</g>
<defs>
<clipPath id="clip0">
<rect width="51.6064" height="18" fill="white"/>
</clipPath>
</defs>
</svg>
